<svg width="279" height="72" viewBox="0 0 279 72" fill="none" xmlns="http://www.w3.org/2000/svg">
<g clip-path="url(#clip0_24_117)">
<path fill-rule="evenodd" clip-rule="evenodd" d="M69.704 48.466H80.2598L74.6844 35.7672L64.4481 58.7235L59.7824 58.7302L72.2427 31.1592C72.5129 30.5996 72.8764 30.143 73.3011 29.8299C73.7258 29.5168 74.1985 29.3569 74.6773 29.3643C75.6568 29.3643 76.5559 30.0173 77.087 31.1107L89.5911 58.7302L84.9231 58.7235L82.7346 53.5931H72.0369L69.704 48.4677V48.466ZM118.133 53.5981V29.6539H114.175V55.9406C114.175 56.6673 114.384 57.3639 114.751 57.883C115.139 58.4238 115.65 58.7252 116.201 58.7252H134.239L136.566 53.6015H118.132L118.133 53.5981ZM52.6893 49.3116C54.532 49.3125 56.2996 48.2777 57.6035 46.4346C58.9074 44.5915 59.6409 42.091 59.6428 39.4828C59.6412 36.8742 58.9079 34.3733 57.6039 32.5299C56.3 30.6864 54.5322 29.6514 52.6893 29.6523H35.3764V58.7218H39.3311V34.7777H52.4148C53.2967 34.7777 54.1426 35.2735 54.7662 36.1562C55.3898 37.0389 55.7402 38.2361 55.7402 39.4844C55.7402 40.7328 55.3898 41.93 54.7662 42.8126C54.1426 43.6953 53.2967 44.1912 52.4148 44.1912L41.2676 44.1862L53.0737 58.7252H58.8206L50.8758 49.3083L52.6881 49.3133L52.6893 49.3116ZM11.0318 58.7235C5.35355 58.7235 0.74585 52.2201 0.74585 44.1896C0.74585 36.1607 5.35237 29.6523 11.0318 29.6523H22.9882C28.6677 29.6523 33.273 36.1607 33.273 44.1896C33.273 52.2217 28.6677 58.7302 22.9882 58.7302L11.0318 58.7218V58.7235ZM22.7232 53.5998C23.597 53.6009 24.4623 53.3583 25.2698 52.886C26.0773 52.4136 26.8111 51.7207 27.4294 50.8469C28.0477 49.973 28.5382 48.9353 28.8731 47.793C29.208 46.6507 29.3806 45.4263 29.381 44.1896C29.3806 42.9528 29.208 41.7282 28.8731 40.5858C28.5383 39.4435 28.0477 38.4057 27.4295 37.5317C26.8112 36.6577 26.0774 35.9646 25.2699 35.4921C24.4624 35.0195 23.597 34.7768 22.7232 34.7777L11.298 34.776C10.424 34.7751 9.55845 35.0179 8.75073 35.4905C7.94302 35.9631 7.20898 36.6562 6.59053 37.5304C5.97207 38.4045 5.48132 39.4425 5.14628 40.5851C4.81123 41.7277 4.63847 42.9525 4.63785 44.1896C4.63785 49.3903 7.61896 53.5998 11.298 53.5998H22.7232ZM97.8424 58.7235C92.1641 58.7235 87.5552 52.2201 87.5552 44.1896C87.5552 36.1607 92.1641 29.6523 97.8424 29.6523H112.05L109.723 34.776H98.1097C97.2356 34.7749 96.3698 35.0175 95.5619 35.49C94.754 35.9625 94.0197 36.6556 93.4011 37.5297C92.7824 38.4038 92.2914 39.4419 91.9562 40.5846C91.6209 41.7273 91.448 42.9523 91.4472 44.1896C91.4481 45.4266 91.6212 46.6514 91.9565 47.7938C92.2919 48.9362 92.7829 49.9739 93.4015 50.8478C94.0202 51.7216 94.7544 52.4144 95.5623 52.8866C96.3701 53.3588 97.2357 53.6011 98.1097 53.5998H112.372L110.048 58.7235H97.8424ZM146.233 53.5998C144.785 53.6011 143.377 52.9342 142.221 51.7002C141.065 50.4662 140.225 48.7323 139.827 46.7615H156.737L159.065 41.6377L139.823 41.6344C140.218 39.6591 141.058 37.9205 142.215 36.6826C143.372 35.4447 144.783 34.7752 146.233 34.776H157.838L160.17 29.6523H145.961C140.284 29.6523 135.676 36.1607 135.676 44.1896C135.676 52.2201 140.284 58.7235 145.961 58.7235H158.167L160.493 53.5998H146.233Z" fill="#F9F9F9"/>
<path d="M182.421 33.7698V54.3249M175.014 43.8414H189.537" stroke="#F9F9F9" stroke-width="2"/>
<path d="M223.824 0H227.201C227.379 0 227.521 0.20093 227.521 0.452093V48.3639C227.521 48.6151 227.379 48.816 227.201 48.816H223.824C223.646 48.816 223.504 48.6151 223.504 48.3639V0.452093C223.504 0.20093 223.646 0 223.824 0ZM247.073 39.4158V40.6214C247.073 41.174 247.002 41.8789 246.86 42.7847C246.752 43.6387 246.433 44.5931 245.864 45.4487C245.33 46.3027 244.548 47.1064 243.447 47.8113C242.344 48.4141 240.887 48.7658 238.967 48.7658C237.048 48.7658 235.591 48.4141 234.488 47.8113C233.387 47.2086 232.64 46.4048 232.071 45.4487C231.538 44.5948 231.183 43.6404 231.075 42.7345C230.969 41.8303 230.862 41.1254 230.862 40.6231V13.3233C230.862 13.0722 231.004 12.8713 231.183 12.8713H234.559C234.601 12.871 234.643 12.8826 234.682 12.9052C234.721 12.9278 234.756 12.9611 234.786 13.0031C234.816 13.0451 234.839 13.095 234.855 13.15C234.872 13.2049 234.88 13.2638 234.88 13.3233V38.8633C234.88 39.7172 234.951 40.32 235.057 40.7721C235.128 41.2744 235.306 41.7282 235.555 42.13C235.804 42.5821 236.195 42.9338 236.728 43.2352C237.226 43.5382 237.937 43.6889 238.825 43.6889C239.75 43.6889 240.497 43.5382 241.029 43.2368C241.562 42.9354 241.99 42.634 242.238 42.1819C242.522 41.7801 242.7 41.3263 242.807 40.824C242.878 40.3217 243.02 39.97 243.02 38.7628V13.3233C243.02 13.0722 243.162 12.8713 243.34 12.8713H246.717C246.759 12.871 246.8 12.8826 246.839 12.9052C246.878 12.9278 246.914 12.9611 246.943 13.0031C246.973 13.0451 246.997 13.095 247.013 13.15C247.029 13.2049 247.037 13.2638 247.037 13.3233L247.073 39.4158ZM258.59 12.9215H260.865C261.078 12.9215 261.221 13.2229 261.149 13.474L260.367 17.6467C260.332 17.8476 260.19 17.9983 260.083 17.9983H258.484C257.631 17.9983 256.955 18.149 256.422 18.5006C255.924 18.8523 255.462 19.1537 255.213 19.6058C254.964 20.0595 254.787 20.4614 254.679 20.9654C254.608 21.4677 254.573 21.8696 254.573 22.3217V48.4158C254.573 48.667 254.431 48.8679 254.253 48.8679H250.841C250.663 48.8679 250.521 48.667 250.521 48.4158V21.1144C250.521 20.6121 250.592 19.9088 250.734 19.003C250.841 18.0988 251.161 17.1929 251.729 16.2871C252.263 15.4331 253.044 14.6294 254.147 13.9261C255.213 13.2212 256.706 12.9198 258.59 12.9198V12.9215ZM212.093 12.9215C214.831 12.9215 216.893 13.675 218.171 15.2322C219.451 16.7911 220.091 18.7016 220.091 21.0156V40.6231C220.091 41.4268 219.985 42.2807 219.772 43.2352C219.546 44.2352 219.142 45.136 218.598 45.8506C217.994 46.6543 217.177 47.3073 216.146 47.8616C215.115 48.4141 213.764 48.6653 212.093 48.6653C210.423 48.6653 209.072 48.3639 208.04 47.8616C207.01 47.3592 206.193 46.656 205.588 45.8523C204.984 45.0469 204.592 44.1913 204.415 43.2368C204.202 42.3326 204.06 41.4268 204.06 40.6231V37.5053C204.06 35.8476 204.379 34.2871 204.984 32.8806C205.624 31.5226 206.476 30.5163 207.579 29.9637C208.147 29.6623 208.751 29.4112 209.498 29.0595C210.209 28.7079 210.92 28.4065 211.595 28.0047C212.271 27.6513 212.84 27.4002 213.373 27.149C213.87 26.8476 214.191 26.7472 214.333 26.6467C214.439 26.5462 214.617 26.4458 214.795 26.2951C215.008 26.1444 215.186 25.8932 215.4 25.6404C215.613 25.2887 215.755 24.9873 215.861 24.5855C216.003 24.1836 216.075 23.7299 216.075 23.1773V21.9215C216.075 21.4677 216.003 21.0659 215.861 20.5619C215.755 20.0595 215.506 19.7079 215.221 19.2558C214.937 18.854 214.475 18.5526 213.978 18.3014C213.48 18.0502 212.84 17.9498 212.022 17.9498C210.458 17.9498 209.427 18.4019 208.822 19.306C208.361 20.1098 208.04 21.0642 208.005 22.171C208.005 22.4221 207.863 22.5728 207.685 22.5728H204.379C204.202 22.5728 204.06 22.3719 204.06 22.1207V20.9654C204.06 19.8603 204.202 18.802 204.486 17.8476C204.771 16.7927 205.267 15.9388 205.943 15.1836C206.69 14.368 207.55 13.7854 208.467 13.474C209.462 13.1726 210.671 12.9215 212.093 12.9215ZM216.146 30.5682C216.075 31.0203 215.897 31.3217 215.684 31.5728C215.435 31.824 215.221 31.9245 214.973 32.0752C214.51 32.3263 213.978 32.5775 213.444 32.8287C212.911 33.13 212.377 33.3812 211.916 33.5838C211.347 33.8852 210.778 34.1364 210.315 34.3875C209.925 34.6387 209.569 34.9401 209.214 35.2917C208.93 35.645 208.68 36.0971 208.432 36.6513C208.182 37.2541 208.076 37.9072 208.076 38.7611C208.076 40.4205 208.361 41.6779 208.93 42.5319C209.498 43.3356 210.565 43.7894 212.093 43.7894C213.657 43.7894 214.724 43.3373 215.328 42.4833C215.897 41.6294 216.182 40.3702 216.182 38.813L216.146 30.5682ZM270.748 12.9198C273.485 12.9198 275.547 13.6733 276.826 15.2339C278.106 16.7911 278.746 18.7016 278.746 21.0156V40.6231C278.746 41.4268 278.639 42.2807 278.426 43.2352C278.201 44.2352 277.796 45.136 277.253 45.8506C276.684 46.6041 275.831 47.3073 274.801 47.8616C273.769 48.4141 272.418 48.6653 270.748 48.6653C269.077 48.6653 267.726 48.3639 266.695 47.8616C265.664 47.3592 264.847 46.656 264.243 45.8523C263.638 45.0469 263.246 44.1913 263.069 43.2368C262.856 42.2824 262.75 41.3766 262.75 40.6231V37.5053C262.75 35.8476 263.069 34.2871 263.674 32.8806C264.279 31.5182 265.194 30.4892 266.269 29.9637C266.837 29.6623 267.441 29.4112 268.188 29.0595C268.899 28.7079 269.61 28.4065 270.285 28.0047C270.961 27.6513 271.53 27.4002 272.063 27.149C272.56 26.8476 272.881 26.7472 273.023 26.6467C273.129 26.5462 273.307 26.4458 273.485 26.2951C273.698 26.1444 273.876 25.8932 274.09 25.6404C274.303 25.2887 274.445 24.9873 274.551 24.5855C274.693 24.1836 274.764 23.7299 274.764 23.1773V21.9215C274.764 21.4677 274.693 21.0659 274.551 20.5619C274.445 20.0595 274.196 19.7079 273.911 19.2558C273.592 18.854 273.165 18.5526 272.668 18.3014C272.17 18.0502 271.53 17.9498 270.712 17.9498C269.148 17.9498 268.117 18.4019 267.512 19.306C267.051 20.1098 266.73 21.0642 266.695 22.171C266.695 22.4221 266.553 22.5728 266.375 22.5728H262.963C262.785 22.5728 262.643 22.3719 262.643 22.1207V20.9654C262.643 19.8603 262.785 18.802 263.069 17.8476C263.354 16.8932 263.851 15.989 264.526 15.2339C265.273 14.4182 266.134 13.8356 267.051 13.5243C268.117 13.1726 269.326 12.9215 270.748 12.9215V12.9198ZM274.764 30.5682C274.693 31.0203 274.516 31.3217 274.303 31.5728C274.053 31.824 273.84 31.9245 273.592 32.0752C273.129 32.3263 272.596 32.5775 272.063 32.8287C271.53 33.13 270.996 33.3812 270.535 33.5838C269.966 33.8852 269.397 34.1364 268.934 34.3875C268.544 34.6387 268.188 34.9401 267.833 35.2917C267.548 35.645 267.299 36.0971 267.051 36.6513C266.801 37.2039 266.695 37.9072 266.695 38.7611C266.695 40.4205 266.98 41.6779 267.548 42.5319C268.117 43.3356 269.184 43.7894 270.712 43.7894C272.276 43.7894 273.343 43.3373 273.947 42.4833C274.516 41.6294 274.801 40.3702 274.801 38.813L274.764 30.5682ZM228.942 56.0545C228.942 55.8033 229.086 55.6024 229.263 55.6024H231.219C231.396 55.6024 231.538 55.8033 231.538 56.0545V68.3732H235.413C235.591 68.3732 235.733 68.5741 235.733 68.8253V71.3386C235.733 71.5898 235.591 71.7907 235.413 71.7907H229.263C229.221 71.7909 229.179 71.7794 229.14 71.7568C229.102 71.7341 229.066 71.7009 229.036 71.6589C229.007 71.6169 228.983 71.567 228.967 71.512C228.951 71.457 228.942 71.3981 228.942 71.3386V56.0545ZM236.373 71.1879L241.456 55.7029C241.491 55.5522 241.633 55.4517 241.74 55.4517H241.919C242.025 55.4517 242.131 55.5522 242.202 55.7029L247.286 71.1879C247.392 71.4893 247.25 71.7907 247.002 71.7907H245.188C244.904 71.7907 244.762 71.64 244.619 71.2381L244.051 69.4298H239.607L239.039 71.2884C238.996 71.4518 238.918 71.5924 238.816 71.6912C238.714 71.79 238.594 71.8422 238.47 71.8409H236.692C236.373 71.7907 236.266 71.4893 236.373 71.1879ZM243.055 66.2618L241.811 62.4407L240.603 66.2618H243.055ZM249.49 59.0216H247.144C247.102 59.0218 247.06 59.0103 247.021 58.9876C246.982 58.965 246.947 58.9318 246.917 58.8898C246.887 58.8478 246.864 58.7978 246.848 58.7429C246.831 58.6879 246.823 58.629 246.823 58.5695V56.0545C246.823 55.8033 246.966 55.6024 247.144 55.6024H254.36C254.537 55.6024 254.679 55.8033 254.679 56.0545V58.5695C254.679 58.8206 254.537 59.0216 254.36 59.0216H252.05V71.3386C252.05 71.5898 251.908 71.7907 251.729 71.7907H249.775C249.733 71.7909 249.691 71.7794 249.652 71.7568C249.613 71.7341 249.578 71.7009 249.548 71.6589C249.518 71.6169 249.495 71.567 249.479 71.512C249.462 71.457 249.454 71.3981 249.454 71.3386V59.0233H249.49V59.0216ZM254.289 71.1879L259.372 55.7029C259.408 55.5522 259.55 55.4517 259.656 55.4517H259.835C259.941 55.4517 260.048 55.5522 260.119 55.7029L265.202 71.1879C265.308 71.4893 265.166 71.7907 264.918 71.7907H263.105C262.821 71.7907 262.679 71.64 262.535 71.2381L261.968 69.4298H257.523L256.955 71.2884C256.908 71.4586 256.825 71.6036 256.716 71.7028C256.608 71.802 256.48 71.8503 256.351 71.8409H254.573C254.324 71.7907 254.182 71.4893 254.289 71.1879ZM260.972 66.2618L259.727 62.4407L258.519 66.2618H260.972ZM267.655 55.7531C267.655 55.5522 267.833 55.4015 267.939 55.4015H268.188C268.259 55.4015 268.402 55.5019 268.473 55.6526L272.241 65.6071H272.276L276.044 55.6526C276.079 55.5019 276.258 55.4015 276.329 55.4015H276.577C276.719 55.4015 276.861 55.5522 276.861 55.7531L278.71 71.2381C278.746 71.5395 278.604 71.7405 278.391 71.7405H276.471C276.329 71.7405 276.186 71.5395 276.15 71.3888L275.404 64.2491H275.368L272.632 71.6902C272.596 71.8409 272.454 71.9414 272.347 71.9414H272.063C271.957 71.9414 271.849 71.8409 271.778 71.6902L269.041 64.2491H269.005L268.294 71.3888C268.294 71.5898 268.152 71.7405 267.975 71.7405H266.055C265.842 71.7405 265.7 71.5395 265.735 71.2381L267.655 55.7531Z" fill="#F9F9F9"/>
</g>
<defs>
<clipPath id="clip0_24_117">
<rect width="278" height="72" fill="white" transform="translate(0.74585)"/>
</clipPath>
</defs>
</svg>
